<?xml version="1.0" encoding="UTF-8"?>
<svg xmlns="http://www.w3.org/2000/svg" viewBox="0 0 1200 630" width="1200" height="630">
  <defs>
    <linearGradient id="g66617" x1="76.49596321166024%" y1="7.597595192178694%" x2="23.50403678833976%" y2="92.40240480782131%">
      <stop offset="0%" stop-color="#D97706"/>
      <stop offset="100%" stop-color="#B45309"/>
    </linearGradient>
  </defs>
  <rect width="1200" height="630" fill="url(#g66617)"/>
  <polygon points="231.31339631043375,259.0157701773569 301.31339631043375,219.0157701773569 371.31339631043375,259.0157701773569 301.31339631043375,299.0157701773569" fill="rgba(255,255,255,0.08)" stroke="rgba(255,255,255,0.15)" stroke-width="2"/><line x1="361.31339631043375" y1="264.0157701773569" x2="361.31339631043375" y2="319.0157701773569" stroke="rgba(255,255,255,0.12)" stroke-width="2"/><path d="M 909.2717052437365 384.34160341508687 C 879.2717052437365 374.34160341508687 829.2717052437365 379.34160341508687 819.2717052437365 314.34160341508687 L 909.2717052437365 324.34160341508687 L 999.2717052437365 314.34160341508687 C 989.2717052437365 379.34160341508687 939.2717052437365 374.34160341508687 909.2717052437365 384.34160341508687 Z" fill="rgba(255,255,255,0.06)" stroke="rgba(255,255,255,0.12)" stroke-width="1.5"/><line x1="909.2717052437365" y1="384.34160341508687" x2="909.2717052437365" y2="324.34160341508687" stroke="rgba(255,255,255,0.12)" stroke-width="1.5"/><rect x="165.0430761743337" y="406.08270505443215" width="8" height="100" rx="1" fill="rgba(255,255,255,0.1)" transform="rotate(46.874985629692674 165.0430761743337 406.08270505443215)"/><circle cx="1024.077986937482" cy="186.14520421251655" r="30" fill="none" stroke="rgba(255,255,255,0.12)" stroke-width="2"/><line x1="1014.0779869374819" y1="216.14520421251655" x2="1034.077986937482" y2="216.14520421251655" stroke="rgba(255,255,255,0.1)" stroke-width="2"/><line x1="1016.0779869374819" y1="223.14520421251655" x2="1032.077986937482" y2="223.14520421251655" stroke="rgba(255,255,255,0.1)" stroke-width="2"/><circle cx="131.57918306533247" cy="390.5486601847224" r="3.873192165978253" fill="rgba(255,255,255,0.10825994526967406)"/><circle cx="587.736784433946" cy="574.5204082201235" r="5.559649453498423" fill="rgba(255,255,255,0.06852147242054343)"/><circle cx="630.9372179675847" cy="66.41391006764024" r="2.210307818837464" fill="rgba(255,255,255,0.07909255761653185)"/><circle cx="1082.6001423411071" cy="88.78331555752084" r="4.41186501365155" fill="rgba(255,255,255,0.05475361039862037)"/><circle cx="453.2676763134077" cy="513.1375351105817" r="4.355019240640104" fill="rgba(255,255,255,0.06566194579005241)"/><circle cx="1066.435851692222" cy="70.36802374757826" r="5.198300398886204" fill="rgba(255,255,255,0.08346239933744073)"/><circle cx="847.3514825804159" cy="180.6336413207464" r="3.0002379715442657" fill="rgba(255,255,255,0.1194105508737266)"/><circle cx="205.527710984461" cy="287.2826519072987" r="3.9223917108029127" fill="rgba(255,255,255,0.07766734912991524)"/><circle cx="371.71661453321576" cy="67.50509163131937" r="2.4642587676644325" fill="rgba(255,255,255,0.09297594487667084)"/><circle cx="711.9752058759332" cy="401.5353031363338" r="3.8378601213917136" fill="rgba(255,255,255,0.07487334238365292)"/><circle cx="762.5085974577814" cy="450.495092170313" r="3.7791461991146207" fill="rgba(255,255,255,0.07507248587906361)"/><circle cx="959.0347359888256" cy="556.942670866847" r="3.089540901593864" fill="rgba(255,255,255,0.06500526396557689)"/><circle cx="840.5328057240695" cy="290.92814948176965" r="5.5948707005009055" fill="rgba(255,255,255,0.04666576424613595)"/><circle cx="677.5556899840012" cy="513.106824986171" r="2.969008691608906" fill="rgba(255,255,255,0.050500458143651485)"/><circle cx="668.3733819751069" cy="98.3143079164438" r="2.9887061901390553" fill="rgba(255,255,255,0.06799894820898772)"/>
  <circle cx="1154.08601090312" cy="544.7623251588084" r="1.6161186890676618" fill="rgba(255,255,255,0.032467781084124)"/><circle cx="427.886737883091" cy="306.10482262680307" r="2.6057170256972313" fill="rgba(255,255,255,0.04746725309640169)"/><circle cx="85.42236294597387" cy="327.07396536832675" r="1.1304004369303584" fill="rgba(255,255,255,0.04654314822517336)"/><circle cx="193.05973816663027" cy="465.0357090309262" r="1.4344278806820512" fill="rgba(255,255,255,0.06058201600797475)"/><circle cx="426.1669638566673" cy="211.87245679087937" r="1.1715783523395658" fill="rgba(255,255,255,0.049975308096036314)"/><circle cx="774.5055114850402" cy="238.24192584492266" r="2.3235176037997007" fill="rgba(255,255,255,0.06055990204447881)"/><circle cx="1134.438077174127" cy="280.6816910393536" r="1.4530632668174803" fill="rgba(255,255,255,0.07994560024933889)"/><circle cx="737.9716213792562" cy="190.58080571936443" r="2.7041080184280872" fill="rgba(255,255,255,0.055483813916798685)"/><circle cx="813.1724579259753" cy="53.631733087822795" r="1.2369229304604232" fill="rgba(255,255,255,0.04810746965929866)"/><circle cx="120.66299049183726" cy="572.653657856863" r="2.845308512914926" fill="rgba(255,255,255,0.030452552328351885)"/><circle cx="1087.2729032300413" cy="186.75542157841846" r="2.12783546699211" fill="rgba(255,255,255,0.05642125946003944)"/><circle cx="623.2486627064645" cy="155.51410298561677" r="1.143813828472048" fill="rgba(255,255,255,0.07448895634850487)"/><circle cx="131.70302510261536" cy="183.22136148344725" r="1.3754741628654301" fill="rgba(255,255,255,0.056836710469797255)"/><circle cx="832.9290392808616" cy="54.03831750154495" r="2.58300873124972" fill="rgba(255,255,255,0.072555950244423)"/><circle cx="590.3800659812987" cy="575.5479198438115" r="2.6188940363936126" fill="rgba(255,255,255,0.07590736711397766)"/><circle cx="484.5397302880883" cy="73.73819243861362" r="2.7160429200157523" fill="rgba(255,255,255,0.04681024726713076)"/><circle cx="692.9277235642076" cy="159.82416367856786" r="1.9608674254268408" fill="rgba(255,255,255,0.042140622886363416)"/><circle cx="99.54812591895461" cy="444.2720380635001" r="2.331999504007399" fill="rgba(255,255,255,0.0555842812359333)"/><circle cx="519.3807612173259" cy="263.4584202594124" r="1.124013511929661" fill="rgba(255,255,255,0.05498901576036587)"/><circle cx="54.34757564216852" cy="399.3022478255443" r="1.040165142621845" fill="rgba(255,255,255,0.057603959164116536)"/>
  <text x="600" y="335" font-family="system-ui, -apple-system, 'Segoe UI', sans-serif" font-size="68" font-weight="700" fill="rgba(0,0,0,0.15)" text-anchor="middle" letter-spacing="1">KPSEA Kenya</text>
  <text x="600" y="332" font-family="system-ui, -apple-system, 'Segoe UI', sans-serif" font-size="68" font-weight="700" fill="white" text-anchor="middle" letter-spacing="1">KPSEA Kenya</text>
  <g transform="translate(1140, 575)">
    <rect x="0" y="0" width="40" height="40" rx="8" fill="rgba(255,255,255,0.15)"/>
    <text x="20" y="29" font-family="sans-serif" font-weight="bold" font-size="24" fill="rgba(255,255,255,0.6)" text-anchor="middle">K</text>
  </g>
</svg>